<svg width="943" height="864" viewBox="0 0 943 864" fill="none" xmlns="http://www.w3.org/2000/svg">
<path d="M920.942 322.502L943 206.201H753.644L790.102 0H673.622L637.164 206.201H354.121L390.462 0H273.983L237.641 206.201H87.1497L66.5326 322.502H217.024L170.433 587.669H22.0585L0 703.97H149.233L120.929 864H237.408L269.79 680.593L426.687 681.407C474.411 679.426 520.67 664.378 560.405 637.911L520.568 864H637.048L665.236 703.97H853.117L873.618 587.669H685.853L732.445 322.502H920.942ZM440.897 565.456C381.26 565.456 341.307 516.958 351.907 457.411C357.861 427.759 373.654 400.979 396.734 381.395C419.814 361.811 448.834 350.569 479.103 349.484C538.74 349.484 578.693 397.865 568.209 457.411C562.216 487.076 546.399 513.864 523.306 533.462C500.212 553.061 471.184 564.33 440.897 565.456Z" fill="#F3F3F3"/>
</svg>
