<svg width="979" height="864" viewBox="0 0 979 864" fill="none" xmlns="http://www.w3.org/2000/svg">
<path d="M955.788 322.502L978.681 206.201H782.16L819.997 0H699.111L661.273 206.201H367.52L405.236 0H284.35L246.633 206.201H90.4472L69.0501 322.502H225.236L176.881 587.669H22.8931L0 703.97H154.879L125.505 864H246.391L279.998 680.593L442.832 681.407C492.362 679.426 540.371 664.378 581.609 637.911L540.266 864H661.152L690.407 703.97H885.397L906.674 587.669H711.805L760.159 322.502H955.788ZM457.58 565.456C395.686 565.456 354.221 516.958 365.222 457.411C371.402 427.759 387.792 400.979 411.745 381.395C435.699 361.811 465.817 350.569 497.231 349.484C559.125 349.484 600.589 397.865 589.709 457.411C583.489 487.076 567.074 513.864 543.106 533.462C519.139 553.061 489.013 564.33 457.58 565.456Z" fill="#3C257E"/>
</svg>
