<svg width="74" height="74" viewBox="0 0 74 74" fill="none" xmlns="http://www.w3.org/2000/svg">
<path d="M37.1383 6.58325C33.144 6.58325 29.1887 7.37 25.4984 8.89858C21.8081 10.4272 18.455 12.6676 15.6305 15.4921C9.92628 21.1963 6.72168 28.9329 6.72168 36.9999C6.72168 50.4441 15.4513 61.8503 27.5267 65.8958C29.0475 66.1391 29.5342 65.1962 29.5342 64.3749V59.2345C21.1088 61.0595 19.3142 55.1587 19.3142 55.1587C17.915 51.6303 15.9379 50.6874 15.9379 50.6874C13.17 48.8016 16.1508 48.8624 16.1508 48.8624C19.1925 49.0753 20.8046 51.9953 20.8046 51.9953C23.4508 56.6187 27.9221 55.2499 29.6558 54.5199C29.9296 52.5428 30.7204 51.2045 31.5721 50.4441C24.8196 49.6837 17.7325 47.0678 17.7325 35.4791C17.7325 32.1028 18.8883 29.3958 20.8654 27.2362C20.5613 26.4758 19.4967 23.3124 21.1696 19.2062C21.1696 19.2062 23.7246 18.3849 29.5342 22.3087C31.9371 21.6395 34.5529 21.3049 37.1383 21.3049C39.7238 21.3049 42.3396 21.6395 44.7425 22.3087C50.5521 18.3849 53.1071 19.2062 53.1071 19.2062C54.78 23.3124 53.7154 26.4758 53.4113 27.2362C55.3883 29.3958 56.5442 32.1028 56.5442 35.4791C56.5442 47.0983 49.4267 49.6533 42.6438 50.4137C43.7388 51.3566 44.7425 53.212 44.7425 56.0408V64.3749C44.7425 65.1962 45.2292 66.1695 46.7804 65.8958C58.8558 61.8199 67.555 50.4441 67.555 36.9999C67.555 33.0055 66.7683 29.0503 65.2397 25.36C63.7111 21.6696 61.4706 18.3165 58.6462 15.4921C55.8217 12.6676 52.4686 10.4272 48.7783 8.89858C45.088 7.37 41.1327 6.58325 37.1383 6.58325Z" fill="#3C257E"/>
</svg>
