<svg width="65" height="65" viewBox="0 0 65 65" fill="none" xmlns="http://www.w3.org/2000/svg">
<path d="M63.4765 16.0471L48.9553 1.52341C48.4725 1.04043 47.8992 0.657314 47.2682 0.395925C46.6372 0.134536 45.9609 0 45.2779 0C44.5949 0 43.9187 0.134536 43.2877 0.395925C42.6567 0.657314 42.0834 1.04043 41.6005 1.52341L1.52429 41.6009C1.03932 42.082 0.654823 42.6547 0.393148 43.2857C0.131473 43.9167 -0.0021562 44.5934 2.63089e-05 45.2765V59.8002C2.63089e-05 61.1792 0.547888 62.5018 1.52309 63.477C2.49829 64.4521 3.82095 65 5.20009 65H19.7245C20.4076 65.0022 21.0844 64.8685 21.7154 64.6069C22.3465 64.3452 22.9192 63.9607 23.4003 63.4758L63.4765 23.4016C63.9595 22.9187 64.3427 22.3454 64.6041 21.7145C64.8655 21.0835 65 20.4073 65 19.7243C65 19.0414 64.8655 18.3651 64.6041 17.7342C64.3427 17.1032 63.9595 16.53 63.4765 16.0471ZM6.27585 44.2008L35.6399 14.8381L41.061 20.2622L11.7002 49.6216L6.27585 44.2008ZM5.20009 50.4763L14.5244 59.8002H5.20009V50.4763ZM20.8003 58.7245L15.376 53.3004L44.7401 23.9378L50.1611 29.3618L20.8003 58.7245Z" fill="#3C257E"/>
</svg>
