<svg width="74" height="74" viewBox="0 0 74 74" fill="none" xmlns="http://www.w3.org/2000/svg">
<path d="M20.4914 44.6467C20.4858 46.2314 19.8536 47.7497 18.7327 48.87C17.6118 49.9903 16.0932 50.6218 14.5085 50.6266C12.9226 50.6226 11.4029 49.991 10.2812 48.87C9.15959 47.7489 8.52728 46.2295 8.52246 44.6436C8.52246 41.3495 11.2143 38.6576 14.5085 38.6576H20.4914V44.6467ZM23.5088 44.6467C23.5088 41.3525 26.2006 38.6607 29.4948 38.6607C32.7889 38.6607 35.4777 41.3525 35.4777 44.6467V59.633C35.4737 61.2188 34.8422 62.7386 33.7211 63.8602C32.6 64.9818 31.0806 65.6141 29.4948 65.619C27.9084 65.6149 26.3882 64.983 25.2664 63.8613C24.1447 62.7395 23.5128 61.2193 23.5088 59.633V44.6467ZM29.4948 20.3529C27.9089 20.3489 26.3892 19.7173 25.2675 18.5963C24.1459 17.4752 23.5136 15.9557 23.5088 14.3699C23.5088 11.0758 26.2006 8.38696 29.4948 8.38696C32.7889 8.38696 35.4777 11.0758 35.4777 14.3699V20.3559L29.4948 20.3529ZM29.4948 23.3702C32.7889 23.3702 35.4777 26.059 35.4777 29.3532C35.4737 30.939 34.8422 32.4588 33.7211 33.5804C32.6 34.702 31.0806 35.3344 29.4948 35.3392H14.5085C12.9221 35.3352 11.4019 34.7032 10.2802 33.5815C9.15843 32.4598 8.52648 30.9395 8.52246 29.3532C8.52246 26.059 11.2143 23.3702 14.5085 23.3702H29.4948ZM53.7855 29.3532C53.7855 26.059 56.4774 23.3702 59.7715 23.3702C63.0656 23.3702 65.7575 26.059 65.7575 29.3532C65.7535 30.9395 65.1215 32.4598 63.9998 33.5815C62.8781 34.7032 61.3579 35.3352 59.7715 35.3392H53.7855V29.3532ZM50.7712 29.3532C50.7672 30.9395 50.1352 32.4598 49.0135 33.5815C47.8918 34.7032 46.3716 35.3352 44.7852 35.3392C43.1989 35.3352 41.6786 34.7032 40.5569 33.5815C39.4352 32.4598 38.8032 30.9395 38.7992 29.3532V14.3699C38.7992 11.0758 41.4911 8.38696 44.7852 8.38696C48.0793 8.38696 50.7712 11.0758 50.7712 14.3699V29.3532ZM44.7852 53.647C48.0793 53.647 50.7712 56.3388 50.7712 59.633C50.7672 61.2193 50.1352 62.7395 49.0135 63.8613C47.8918 64.983 46.3716 65.6149 44.7852 65.619C43.1989 65.6149 41.6786 64.983 40.5569 63.8613C39.4352 62.7395 38.8032 61.2193 38.7992 59.633V53.647H44.7852ZM44.7852 50.6296C43.1994 50.6256 41.6796 49.9941 40.558 48.873C39.4363 47.7519 38.804 46.2325 38.7992 44.6467C38.7992 41.3525 41.4911 38.6607 44.7852 38.6607H59.7715C63.0656 38.6607 65.7575 41.3525 65.7575 44.6467C65.7527 46.2325 65.1204 47.7519 63.9987 48.873C62.8771 49.9941 61.3573 50.6256 59.7715 50.6296H44.7852Z" fill="#3C257E"/>
</svg>
