<svg width="305" height="311" viewBox="0 0 305 311" fill="none" xmlns="http://www.w3.org/2000/svg">
<mask id="path-1-outside-1_665_3442" maskUnits="userSpaceOnUse" x="10.1869" y="20.009" width="295" height="291" fill="black">
<rect fill="white" x="10.1869" y="20.009" width="295" height="291"/>
<path fill-rule="evenodd" clip-rule="evenodd" d="M60.0002 302.153L73.0589 237.559H21.1869L30.9809 190.681H62.7885V194.578H131.705V184.493H83.3703L92.2842 140.112H41.5004L51.2944 93.2349H101.353L114.049 29.009H160.117L147.421 93.2349H197.479L210.175 29.009H255.881L243.185 93.2349H294.331L284.537 140.112H233.753L225.907 180.626H179.911L183.695 161.787H183.692L184.036 160.077C186.07 149.948 178.47 140.486 168.183 140.112H137.99L132.65 167.682H132.651L132.043 170.82C130.068 181.016 137.825 190.483 148.216 190.681H168.264V190.712H237.181V190.681H274.018L264.224 237.559H214.528L201.832 302.153H156.127L168.823 237.559H118.764L106.068 302.153H60.0002Z"/>
</mask>
<path fill-rule="evenodd" clip-rule="evenodd" d="M60.0002 302.153L73.0589 237.559H21.1869L30.9809 190.681H62.7885V194.578H131.705V184.493H83.3703L92.2842 140.112H41.5004L51.2944 93.2349H101.353L114.049 29.009H160.117L147.421 93.2349H197.479L210.175 29.009H255.881L243.185 93.2349H294.331L284.537 140.112H233.753L225.907 180.626H179.911L183.695 161.787H183.692L184.036 160.077C186.07 149.948 178.47 140.486 168.183 140.112H137.99L132.65 167.682H132.651L132.043 170.82C130.068 181.016 137.825 190.483 148.216 190.681H168.264V190.712H237.181V190.681H274.018L264.224 237.559H214.528L201.832 302.153H156.127L168.823 237.559H118.764L106.068 302.153H60.0002Z" fill="black"/>
<path d="M73.0589 237.559L81.2967 239.224L83.3325 229.154H73.0589V237.559ZM60.0002 302.153L51.7625 300.488L49.7267 310.558H60.0002V302.153ZM21.1869 237.559L12.9601 235.84L10.845 245.963H21.1869V237.559ZM30.9809 190.681V182.277H24.1509L22.7541 188.962L30.9809 190.681ZM62.7885 190.681H71.193V182.277H62.7885V190.681ZM62.7885 194.578H54.3841V202.983H62.7885V194.578ZM131.705 194.578V202.983H140.109V194.578H131.705ZM131.705 184.493H140.109V176.089H131.705V184.493ZM83.3703 184.493L75.1304 182.838L73.11 192.898H83.3703V184.493ZM92.2842 140.112L100.524 141.767L102.545 131.708H92.2842V140.112ZM41.5004 140.112L33.2736 138.394L31.1586 148.517H41.5004V140.112ZM51.2944 93.2349V84.8304H44.4645L43.0676 91.5161L51.2944 93.2349ZM101.353 93.2349V101.639H108.259L109.598 94.8647L101.353 93.2349ZM114.049 29.009V20.6046H107.143L105.804 27.3792L114.049 29.009ZM160.117 29.009L168.362 30.6389L170.345 20.6046H160.117V29.009ZM147.421 93.2349L139.176 91.6051L137.193 101.639H147.421V93.2349ZM197.479 93.2349V101.639H204.385L205.724 94.8647L197.479 93.2349ZM210.175 29.009V20.6046H203.27L201.93 27.3792L210.175 29.009ZM255.881 29.009L264.126 30.6389L266.109 20.6046H255.881V29.009ZM243.185 93.2349L234.94 91.6051L232.956 101.639H243.185V93.2349ZM294.331 93.2349L302.558 94.9537L304.673 84.8304H294.331V93.2349ZM284.537 140.112V148.517H291.367L292.764 141.831L284.537 140.112ZM233.753 140.112V131.708H226.821L225.502 138.514L233.753 140.112ZM225.907 180.626V189.031H232.84L234.158 182.224L225.907 180.626ZM179.911 180.626L171.671 178.971L169.65 189.031H179.911V180.626ZM183.695 161.787L191.935 163.442L193.955 153.383H183.695V161.787ZM183.692 161.787L175.452 160.132L173.432 170.191H183.692V161.787ZM184.036 160.077L175.796 158.422L175.796 158.422L184.036 160.077ZM168.183 140.112L168.488 131.713L168.335 131.708H168.183V140.112ZM137.99 140.112V131.708H131.057L129.739 138.514L137.99 140.112ZM132.65 167.682L124.399 166.084L122.462 176.087H132.65V167.682ZM132.651 167.682L140.902 169.281L142.839 159.278H132.651V167.682ZM132.043 170.82L123.792 169.222L123.792 169.222L132.043 170.82ZM148.216 190.681L148.055 199.084L148.136 199.085H148.216V190.681ZM168.264 190.681H176.669V182.277H168.264V190.681ZM168.264 190.712H159.86V199.116H168.264V190.712ZM237.181 190.712V199.116H245.585V190.712H237.181ZM237.181 190.681V182.277H228.776V190.681H237.181ZM274.018 190.681L282.245 192.4L284.36 182.277H274.018V190.681ZM264.224 237.559V245.963H271.054L272.451 239.277L264.224 237.559ZM214.528 237.559V229.154H207.615L206.282 235.938L214.528 237.559ZM201.832 302.153V310.558H208.746L210.079 303.774L201.832 302.153ZM156.127 302.153L147.88 300.533L145.91 310.558H156.127V302.153ZM168.823 237.559L177.069 239.179L179.04 229.154H168.823V237.559ZM118.764 237.559V229.154H111.851L110.518 235.938L118.764 237.559ZM106.068 302.153V310.558H112.982L114.315 303.774L106.068 302.153ZM64.8212 235.893L51.7625 300.488L68.238 303.819L81.2967 239.224L64.8212 235.893ZM21.1869 245.963H73.0589V229.154H21.1869V245.963ZM22.7541 188.962L12.9601 235.84L29.4137 239.277L39.2077 192.4L22.7541 188.962ZM62.7885 182.277H30.9809V199.085H62.7885V182.277ZM71.193 194.578V190.681H54.3841V194.578H71.193ZM131.705 186.174H62.7885V202.983H131.705V186.174ZM123.301 184.493V194.578H140.109V184.493H123.301ZM83.3703 192.898H131.705V176.089H83.3703V192.898ZM84.0444 138.457L75.1304 182.838L91.6102 186.148L100.524 141.767L84.0444 138.457ZM41.5004 148.517H92.2842V131.708H41.5004V148.517ZM43.0676 91.5161L33.2736 138.394L49.7272 141.831L59.5213 94.9537L43.0676 91.5161ZM101.353 84.8304H51.2944V101.639H101.353V84.8304ZM105.804 27.3792L93.1079 91.6051L109.598 94.8647L122.294 30.6389L105.804 27.3792ZM160.117 20.6046H114.049V37.4135H160.117V20.6046ZM155.666 94.8647L168.362 30.6389L151.872 27.3792L139.176 91.6051L155.666 94.8647ZM197.479 84.8304H147.421V101.639H197.479V84.8304ZM201.93 27.3792L189.234 91.6051L205.724 94.8647L218.42 30.6389L201.93 27.3792ZM255.881 20.6046H210.175V37.4135H255.881V20.6046ZM251.43 94.8647L264.126 30.6389L247.636 27.3792L234.94 91.6051L251.43 94.8647ZM294.331 84.8304H243.185V101.639H294.331V84.8304ZM292.764 141.831L302.558 94.9537L286.105 91.5161L276.311 138.394L292.764 141.831ZM233.753 148.517H284.537V131.708H233.753V148.517ZM234.158 182.224L242.005 141.71L225.502 138.514L217.656 179.028L234.158 182.224ZM179.911 189.031H225.907V172.222H179.911V189.031ZM175.455 160.132L171.671 178.971L188.151 182.281L191.935 163.442L175.455 160.132ZM183.692 170.191H183.695V153.383H183.692V170.191ZM175.796 158.422L175.452 160.132L191.932 163.442L192.276 161.732L175.796 158.422ZM167.878 148.511C173.068 148.7 176.794 153.454 175.796 158.422L192.276 161.732C195.347 146.441 183.872 132.272 168.488 131.713L167.878 148.511ZM137.99 148.517H168.183V131.708H137.99V148.517ZM140.901 169.281L146.241 141.71L129.739 138.514L124.399 166.084L140.901 169.281ZM132.651 159.278H132.65V176.087H132.651V159.278ZM140.294 172.418L140.902 169.281L124.399 166.084L123.792 169.222L140.294 172.418ZM148.376 182.278C143.129 182.178 139.325 177.42 140.294 172.418L123.792 169.222C120.811 184.611 132.521 198.787 148.055 199.084L148.376 182.278ZM168.264 182.277H148.216V199.085H168.264V182.277ZM176.669 190.712V190.681H159.86V190.712H176.669ZM237.181 182.307H168.264V199.116H237.181V182.307ZM228.776 190.681V190.712H245.585V190.681H228.776ZM274.018 182.277H237.181V199.085H274.018V182.277ZM272.451 239.277L282.245 192.4L265.791 188.962L255.997 235.84L272.451 239.277ZM214.528 245.963H264.224V229.154H214.528V245.963ZM210.079 303.774L222.775 239.179L206.282 235.938L193.586 300.533L210.079 303.774ZM156.127 310.558H201.832V293.749H156.127V310.558ZM160.576 235.938L147.88 300.533L164.373 303.774L177.069 239.179L160.576 235.938ZM118.764 245.963H168.823V229.154H118.764V245.963ZM114.315 303.774L127.011 239.179L110.518 235.938L97.8218 300.533L114.315 303.774ZM60.0002 310.558H106.068V293.749H60.0002V310.558Z" fill="black" mask="url(#path-1-outside-1_665_3442)"/>
<mask id="path-3-outside-2_665_3442" maskUnits="userSpaceOnUse" x="0" y="20.009" width="295" height="291" fill="black">
<rect fill="white" y="20.009" width="295" height="291"/>
<path fill-rule="evenodd" clip-rule="evenodd" d="M47.6604 302.153V292.068L62.9732 237.559H9V226.934L20.8951 190.681H52.7029V194.578H121.619V184.493H73.2845L82.1985 140.112H29.1707V130.703L41.2087 93.2349H91.267L103.963 29.009H150.031L137.335 93.2349H187.394L200.09 29.009H245.795L233.099 93.2349H284.246L274.452 140.112H223.668L215.821 180.626H169.825L173.609 161.787H173.607L173.95 160.077C175.985 149.948 168.384 140.486 158.097 140.112H127.904L122.564 167.682H122.565L121.957 170.82C119.982 181.016 127.739 190.483 138.131 190.681H158.179V190.712H227.095V190.681H263.932L254.138 237.559H204.442L191.746 302.153H143.891V292.068L158.737 237.559H108.679L95.9826 302.153H47.6604Z"/>
</mask>
<path fill-rule="evenodd" clip-rule="evenodd" d="M47.6604 302.153V292.068L62.9732 237.559H9V226.934L20.8951 190.681H52.7029V194.578H121.619V184.493H73.2845L82.1985 140.112H29.1707V130.703L41.2087 93.2349H91.267L103.963 29.009H150.031L137.335 93.2349H187.394L200.09 29.009H245.795L233.099 93.2349H284.246L274.452 140.112H223.668L215.821 180.626H169.825L173.609 161.787H173.607L173.95 160.077C175.985 149.948 168.384 140.486 158.097 140.112H127.904L122.564 167.682H122.565L121.957 170.82C119.982 181.016 127.739 190.483 138.131 190.681H158.179V190.712H227.095V190.681H263.932L254.138 237.559H204.442L191.746 302.153H143.891V292.068L158.737 237.559H108.679L95.9826 302.153H47.6604Z" fill="#8D22F2"/>
<path d="M47.6604 292.068L39.5692 289.795L39.256 290.91V292.068H47.6604ZM47.6604 302.153H39.256V310.558H47.6604V302.153ZM62.9732 237.559L71.0644 239.831L74.0639 229.154H62.9732V237.559ZM9 237.559H0.595556V245.963H9V237.559ZM9 226.934L1.01444 224.313L0.595556 225.59V226.934H9ZM20.8951 190.681V182.277H14.8075L12.9096 188.061L20.8951 190.681ZM52.7029 190.681H61.1074V182.277H52.7029V190.681ZM52.7029 194.578H44.2985V202.983H52.7029V194.578ZM121.619 194.578V202.983H130.024V194.578H121.619ZM121.619 184.493H130.024V176.089H121.619V184.493ZM73.2845 184.493L65.0447 182.838L63.0242 192.898H73.2845V184.493ZM82.1985 140.112L90.4383 141.767L92.4588 131.708H82.1985V140.112ZM29.1707 140.112H20.7662V148.517H29.1707V140.112ZM29.1707 130.703L21.1691 128.132L20.7662 129.386V130.703H29.1707ZM41.2087 93.2349V84.8304H35.0813L33.2071 90.6641L41.2087 93.2349ZM91.267 93.2349V101.639H98.1727L99.5119 94.8647L91.267 93.2349ZM103.963 29.009V20.6046H97.0573L95.7181 27.3792L103.963 29.009ZM150.031 29.009L158.276 30.6389L160.26 20.6046H150.031V29.009ZM137.335 93.2349L129.09 91.6051L127.107 101.639H137.335V93.2349ZM187.394 93.2349V101.639H194.299L195.638 94.8647L187.394 93.2349ZM200.09 29.009V20.6046H193.184L191.845 27.3792L200.09 29.009ZM245.795 29.009L254.04 30.6389L256.023 20.6046H245.795V29.009ZM233.099 93.2349L224.854 91.6051L222.871 101.639H233.099V93.2349ZM284.246 93.2349L292.472 94.9537L294.587 84.8304H284.246V93.2349ZM274.452 140.112V148.517H281.281L282.678 141.831L274.452 140.112ZM223.668 140.112V131.708H216.735L215.417 138.514L223.668 140.112ZM215.821 180.626V189.031H222.754L224.072 182.224L215.821 180.626ZM169.825 180.626L161.585 178.971L159.565 189.031H169.825V180.626ZM173.609 161.787L181.849 163.442L183.869 153.383H173.609V161.787ZM173.607 161.787L165.367 160.132L163.346 170.191H173.607V161.787ZM173.95 160.077L165.71 158.422L165.71 158.423L173.95 160.077ZM158.097 140.112L158.402 131.713L158.25 131.708H158.097V140.112ZM127.904 140.112V131.708H120.971L119.653 138.514L127.904 140.112ZM122.564 167.682L114.313 166.084L112.376 176.087H122.564V167.682ZM122.565 167.682L130.816 169.281L132.753 159.278H122.565V167.682ZM121.957 170.82L113.706 169.222L113.706 169.222L121.957 170.82ZM138.131 190.681L137.971 199.084L138.051 199.085H138.131V190.681ZM158.179 190.681H166.583V182.277H158.179V190.681ZM158.179 190.712H149.774V199.116H158.179V190.712ZM227.095 190.712V199.116H235.5V190.712H227.095ZM227.095 190.681V182.277H218.691V190.681H227.095ZM263.932 190.681L272.159 192.4L274.274 182.277H263.932V190.681ZM254.138 237.559V245.963H260.968L262.365 239.277L254.138 237.559ZM204.442 237.559V229.154H197.529L196.196 235.938L204.442 237.559ZM191.746 302.153V310.558H198.66L199.993 303.774L191.746 302.153ZM143.891 302.153H135.487V310.558H143.891V302.153ZM143.891 292.068L135.782 289.86L135.487 290.944V292.068H143.891ZM158.737 237.559L166.846 239.767L169.736 229.154H158.737V237.559ZM108.679 237.559V229.154H101.765L100.432 235.938L108.679 237.559ZM95.9826 302.153V310.558H102.896L104.229 303.774L95.9826 302.153ZM39.256 292.068V302.153H56.0649V292.068H39.256ZM54.8819 235.286L39.5692 289.795L55.7517 294.341L71.0644 239.831L54.8819 235.286ZM9 245.963H62.9732V229.154H9V245.963ZM0.595556 226.934V237.559H17.4044V226.934H0.595556ZM12.9096 188.061L1.01444 224.313L16.9856 229.554L28.8807 193.301L12.9096 188.061ZM52.7029 182.277H20.8951V199.085H52.7029V182.277ZM61.1074 194.578V190.681H44.2985V194.578H61.1074ZM121.619 186.174H52.7029V202.983H121.619V186.174ZM113.215 184.493V194.578H130.024V184.493H113.215ZM73.2845 192.898H121.619V176.089H73.2845V192.898ZM73.9586 138.457L65.0447 182.838L81.5244 186.148L90.4383 141.767L73.9586 138.457ZM29.1707 148.517H82.1985V131.708H29.1707V148.517ZM20.7662 130.703V140.112H37.5751V130.703H20.7662ZM33.2071 90.6641L21.1691 128.132L37.1723 133.274L49.2103 95.8057L33.2071 90.6641ZM91.267 84.8304H41.2087V101.639H91.267V84.8304ZM95.7181 27.3792L83.0221 91.6051L99.5119 94.8647L112.208 30.6389L95.7181 27.3792ZM150.031 20.6046H103.963V37.4135H150.031V20.6046ZM145.58 94.8647L158.276 30.6389L141.786 27.3792L129.09 91.6051L145.58 94.8647ZM187.394 84.8304H137.335V101.639H187.394V84.8304ZM191.845 27.3792L179.149 91.605L195.638 94.8647L208.334 30.6389L191.845 27.3792ZM245.795 20.6046H200.09V37.4135H245.795V20.6046ZM241.344 94.8647L254.04 30.6389L237.55 27.3792L224.854 91.6051L241.344 94.8647ZM284.246 84.8304H233.099V101.639H284.246V84.8304ZM282.678 141.831L292.472 94.9537L276.019 91.5161L266.225 138.394L282.678 141.831ZM223.668 148.517H274.452V131.708H223.668V148.517ZM224.072 182.224L231.919 141.71L215.417 138.514L207.57 179.028L224.072 182.224ZM169.825 189.031H215.821V172.222H169.825V189.031ZM165.369 160.132L161.585 178.971L178.065 182.281L181.849 163.442L165.369 160.132ZM173.607 170.191H173.609V153.383H173.607V170.191ZM165.71 158.423L165.367 160.132L181.846 163.442L182.19 161.732L165.71 158.423ZM157.793 148.511C162.983 148.7 166.708 153.454 165.71 158.422L182.19 161.732C185.261 146.441 173.786 132.272 158.402 131.713L157.793 148.511ZM127.904 148.517H158.097V131.708H127.904V148.517ZM130.815 169.281L136.155 141.71L119.653 138.514L114.313 166.084L130.815 169.281ZM122.565 159.278H122.564V176.087H122.565V159.278ZM130.208 172.418L130.816 169.281L114.314 166.084L113.706 169.222L130.208 172.418ZM138.291 182.278C133.043 182.178 129.239 177.42 130.208 172.418L113.706 169.222C110.725 184.612 122.436 198.788 137.971 199.084L138.291 182.278ZM158.179 182.277H138.131V199.085H158.179V182.277ZM166.583 190.712V190.681H149.774V190.712H166.583ZM227.095 182.307H158.179V199.116H227.095V182.307ZM218.691 190.681V190.712H235.5V190.681H218.691ZM263.932 182.277H227.095V199.085H263.932V182.277ZM262.365 239.277L272.159 192.4L255.705 188.962L245.911 235.84L262.365 239.277ZM204.442 245.963H254.138V229.154H204.442V245.963ZM199.993 303.774L212.689 239.179L196.196 235.938L183.5 300.533L199.993 303.774ZM143.891 310.558H191.746V293.749H143.891V310.558ZM135.487 292.068V302.153H152.296V292.068H135.487ZM150.628 235.35L135.782 289.86L152 294.277L166.846 239.767L150.628 235.35ZM108.679 245.963H158.737V229.154H108.679V245.963ZM104.229 303.774L116.925 239.179L100.432 235.938L87.736 300.533L104.229 303.774ZM47.6604 310.558H95.9826V293.749H47.6604V310.558Z" fill="black" mask="url(#path-3-outside-2_665_3442)"/>
<mask id="path-5-outside-3_665_3442" maskUnits="userSpaceOnUse" x="1.10181" y="0" width="293" height="289" fill="black">
<rect fill="white" x="1.10181" width="293" height="289"/>
<path fill-rule="evenodd" clip-rule="evenodd" d="M49.9152 281.144L62.9739 216.549H11.1018L20.8958 169.672H72.0424L80.1731 129.191H125.951L122.565 146.673H122.566L121.958 149.811C119.983 160.007 127.74 169.474 138.132 169.672H158.18V169.701H227.097V169.672H263.933L254.139 216.549H204.443L191.747 281.144H146.042L158.738 216.549H108.679L95.9833 281.144H49.9152ZM215.822 159.616L223.668 119.103H274.452L284.246 72.2258H233.1L245.796 8H200.09L187.394 72.2258H137.336L150.032 8H103.964L91.2677 72.2258H41.2094L31.4153 119.103H82.1992L82.1987 119.105H127.904L127.905 119.103H158.098C168.385 119.477 175.985 128.939 173.951 139.068L173.607 140.778H173.61L169.826 159.616H215.822Z"/>
</mask>
<path fill-rule="evenodd" clip-rule="evenodd" d="M49.9152 281.144L62.9739 216.549H11.1018L20.8958 169.672H72.0424L80.1731 129.191H125.951L122.565 146.673H122.566L121.958 149.811C119.983 160.007 127.74 169.474 138.132 169.672H158.18V169.701H227.097V169.672H263.933L254.139 216.549H204.443L191.747 281.144H146.042L158.738 216.549H108.679L95.9833 281.144H49.9152ZM215.822 159.616L223.668 119.103H274.452L284.246 72.2258H233.1L245.796 8H200.09L187.394 72.2258H137.336L150.032 8H103.964L91.2677 72.2258H41.2094L31.4153 119.103H82.1992L82.1987 119.105H127.904L127.905 119.103H158.098C168.385 119.477 175.985 128.939 173.951 139.068L173.607 140.778H173.61L169.826 159.616H215.822Z" fill="white"/>
<path d="M62.9739 216.549L70.3879 218.048L72.22 208.985H62.9739V216.549ZM49.9152 281.144L42.5012 279.646L40.669 288.708H49.9152V281.144ZM11.1018 216.549L3.69768 215.003L1.79415 224.113H11.1018V216.549ZM20.8958 169.672V162.108H14.7488L13.4917 168.125L20.8958 169.672ZM72.0424 169.672V177.236H78.2382L79.4583 171.161L72.0424 169.672ZM80.1731 129.191V121.627H73.9773L72.7572 127.701L80.1731 129.191ZM125.951 129.191L133.377 130.629L135.12 121.627H125.951V129.191ZM122.565 146.673L115.139 145.235L113.395 154.237H122.565V146.673ZM122.566 146.673L129.992 148.112L131.735 139.109H122.566V146.673ZM121.958 149.811L114.532 148.373L114.532 148.373L121.958 149.811ZM138.132 169.672L137.988 177.235L138.06 177.236H138.132V169.672ZM158.18 169.672H165.744V162.108H158.18V169.672ZM158.18 169.701H150.616V177.265H158.18V169.701ZM227.097 169.701V177.265H234.661V169.701H227.097ZM227.097 169.672V162.108H219.533V169.672H227.097ZM263.933 169.672L271.337 171.219L273.24 162.108H263.933V169.672ZM254.139 216.549V224.113H260.286L261.543 218.096L254.139 216.549ZM204.443 216.549V208.985H198.221L197.021 215.091L204.443 216.549ZM191.747 281.144V288.708H197.969L199.169 282.603L191.747 281.144ZM146.042 281.144L138.62 279.686L136.846 288.708H146.042V281.144ZM158.738 216.549L166.16 218.008L167.933 208.985H158.738V216.549ZM108.679 216.549V208.985H102.457L101.257 215.091L108.679 216.549ZM95.9833 281.144V288.708H102.205L103.405 282.603L95.9833 281.144ZM215.822 159.616V167.18H222.062L223.248 161.054L215.822 159.616ZM223.668 119.103V111.539H217.429L216.242 117.665L223.668 119.103ZM274.452 119.103V126.667H280.599L281.856 120.65L274.452 119.103ZM284.246 72.2258L291.65 73.7728L293.554 64.6618H284.246V72.2258ZM233.1 72.2258L225.679 70.759L223.894 79.7898H233.1V72.2258ZM245.796 8L253.216 9.46684L255.001 0.436H245.796V8ZM200.09 8V0.436H193.875L192.67 6.53316L200.09 8ZM187.394 72.2258V79.7898H193.609L194.815 73.6927L187.394 72.2258ZM137.336 72.2258L129.915 70.759L128.13 79.7898H137.336V72.2258ZM150.032 8L157.452 9.46684L159.237 0.436H150.032V8ZM103.964 8V0.436H97.7485L96.5433 6.53316L103.964 8ZM91.2677 72.2258V79.7898H97.4828L98.6881 73.6927L91.2677 72.2258ZM41.2094 72.2258V64.6618H35.0624L33.8052 70.6789L41.2094 72.2258ZM31.4153 119.103L24.0112 117.556L22.1077 126.667H31.4153V119.103ZM82.1992 119.103L89.6142 120.597L91.4388 111.539H82.1992V119.103ZM82.1987 119.105L74.7837 117.612L72.9591 126.669H82.1987V119.105ZM127.904 119.105V126.669H134.14L135.329 120.548L127.904 119.105ZM127.905 119.103V111.539H121.669L120.479 117.661L127.905 119.103ZM158.098 119.103L158.372 111.544L158.235 111.539H158.098V119.103ZM173.951 139.068L166.535 137.579V137.579L173.951 139.068ZM173.607 140.778L166.191 139.289L164.373 148.342H173.607V140.778ZM173.61 140.778L181.025 142.267L182.844 133.214H173.61V140.778ZM169.826 159.616L162.41 158.126L160.592 167.18H169.826V159.616ZM55.5598 215.051L42.5012 279.646L57.3292 282.643L70.3879 218.048L55.5598 215.051ZM11.1018 224.113H62.9739V208.985H11.1018V224.113ZM13.4917 168.125L3.69768 215.003L18.5059 218.096L28.3 171.219L13.4917 168.125ZM72.0424 162.108H20.8958V177.236H72.0424V162.108ZM72.7572 127.701L64.6265 168.182L79.4583 171.161L87.589 130.68L72.7572 127.701ZM125.951 121.627H80.1731V136.755H125.951V121.627ZM129.991 148.112L133.377 130.629L118.525 127.753L115.139 145.235L129.991 148.112ZM122.566 139.109H122.565V154.237H122.566V139.109ZM129.384 151.25L129.992 148.112L115.14 145.235L114.532 148.373L129.384 151.25ZM138.276 162.109C132.514 162 128.314 156.771 129.384 151.249L114.532 148.373C111.652 163.243 122.967 176.949 137.988 177.235L138.276 162.109ZM158.18 162.108H138.132V177.236H158.18V162.108ZM165.744 169.701V169.672H150.616V169.701H165.744ZM227.097 162.137H158.18V177.265H227.097V162.137ZM219.533 169.672V169.701H234.661V169.672H219.533ZM263.933 162.108H227.097V177.236H263.933V162.108ZM261.543 218.096L271.337 171.219L256.529 168.125L246.735 215.003L261.543 218.096ZM204.443 224.113H254.139V208.985H204.443V224.113ZM199.169 282.603L211.865 218.008L197.021 215.091L184.325 279.686L199.169 282.603ZM146.042 288.708H191.747V273.58H146.042V288.708ZM151.316 215.091L138.62 279.686L153.464 282.603L166.16 218.008L151.316 215.091ZM108.679 224.113H158.738V208.985H108.679V224.113ZM103.405 282.603L116.101 218.008L101.257 215.091L88.5613 279.686L103.405 282.603ZM49.9152 288.708H95.9833V273.58H49.9152V288.708ZM223.248 161.054L231.094 120.542L216.242 117.665L208.396 158.177L223.248 161.054ZM223.668 126.667H274.452V111.539H223.668V126.667ZM281.856 120.65L291.65 73.7728L276.842 70.6789L267.048 117.556L281.856 120.65ZM284.246 64.6618H233.1V79.7898H284.246V64.6618ZM240.52 73.6927L253.216 9.46684L238.375 6.53316L225.679 70.759L240.52 73.6927ZM245.796 0.436H200.09V15.564H245.796V0.436ZM192.67 6.53316L179.974 70.759L194.815 73.6927L207.511 9.46684L192.67 6.53316ZM187.394 64.6618H137.336V79.7898H187.394V64.6618ZM144.756 73.6927L157.452 9.46684L142.611 6.53316L129.915 70.759L144.756 73.6927ZM150.032 0.436H103.964V15.564H150.032V0.436ZM96.5433 6.53316L83.8473 70.759L98.6881 73.6927L111.384 9.46684L96.5433 6.53316ZM91.2677 64.6618H41.2094V79.7898H91.2677V64.6618ZM33.8052 70.6789L24.0112 117.556L38.8195 120.65L48.6135 73.7728L33.8052 70.6789ZM31.4153 126.667H82.1992V111.539H31.4153V126.667ZM74.7841 117.61L74.7837 117.612L89.6138 120.599L89.6142 120.597L74.7841 117.61ZM82.1987 126.669H127.904V111.541H82.1987V126.669ZM135.329 120.548L135.33 120.546L120.479 117.661L120.479 117.663L135.329 120.548ZM127.905 126.667H158.098V111.539H127.905V126.667ZM157.824 126.662C163.523 126.869 167.636 132.094 166.535 137.579L181.367 140.558C184.334 125.783 173.246 112.084 158.372 111.544L157.824 126.662ZM166.535 137.579L166.191 139.289L181.023 142.267L181.367 140.558L166.535 137.579ZM173.607 148.342H173.61V133.214H173.607V148.342ZM166.194 139.289L162.41 158.126L177.242 161.105L181.025 142.267L166.194 139.289ZM169.826 167.18H215.822V152.052H169.826V167.18Z" fill="black" mask="url(#path-5-outside-3_665_3442)"/>
</svg>
